<?xml version="1.0" encoding="iso-8859-1"?>
<!-- Generator: Adobe Illustrator 21.0.0, SVG Export Plug-In . SVG Version: 6.00 Build 0)  -->
<svg version="1.1" id="Capa_1" xmlns="http://www.w3.org/2000/svg" xmlns:xlink="http://www.w3.org/1999/xlink" x="0px" y="0px"
	 viewBox="0 0 512 512" style="enable-background:new 0 0 512 512;" xml:space="preserve">
<path style="fill:#CFF9FF;" d="M428.597,0H83.403c-8.265,0-14.965,6.7-14.965,14.965v482.071c0,8.265,6.7,14.965,14.965,14.965
	h345.192c8.265,0,14.965-6.7,14.965-14.965V14.965C443.561,6.7,436.861,0,428.597,0z"/>
<path style="fill:#B5EFFF;" d="M428.597,0H256.001v512h172.596c8.265,0,14.965-6.7,14.965-14.965V14.965
	C443.561,6.7,436.861,0,428.597,0z"/>
<path style="fill:#FF3F83;" d="M320.969,466.188c-2.463,0-4.926-0.608-7.158-1.823c-5.139-2.799-50.344-28.439-54.966-66.217
	c-1.422-11.619,2.038-23.361,9.495-32.214c7.202-8.552,17.257-13.562,28.313-14.107c8.703-0.426,17.209,1.965,24.317,6.707
	c7.106-4.742,15.607-7.129,24.316-6.707c11.057,0.545,21.111,5.555,28.313,14.107c7.456,8.854,10.916,20.595,9.495,32.215
	c-4.621,37.776-49.826,63.415-54.965,66.216C325.896,465.58,323.433,466.188,320.969,466.188z"/>
<g>
	<path style="fill:#005E7F;" d="M348.785,123.316h-185.57c-8.265,0-14.965-6.7-14.965-14.965s6.7-14.965,14.965-14.965h185.569
		c8.265,0,14.965,6.7,14.965,14.965S357.049,123.316,348.785,123.316z"/>
	<path style="fill:#005E7F;" d="M348.785,180.182h-185.57c-8.265,0-14.965-6.7-14.965-14.965s6.7-14.965,14.965-14.965h185.569
		c8.265,0,14.965,6.7,14.965,14.965S357.049,180.182,348.785,180.182z"/>
	<path style="fill:#005E7F;" d="M348.785,237.048h-185.57c-8.265,0-14.965-6.7-14.965-14.965s6.7-14.965,14.965-14.965h185.569
		c8.265,0,14.965,6.7,14.965,14.965S357.049,237.048,348.785,237.048z"/>
	<path style="fill:#005E7F;" d="M348.785,293.914h-185.57c-8.265,0-14.965-6.7-14.965-14.965c0-8.264,6.7-14.965,14.965-14.965
		h185.569c8.265,0,14.965,6.7,14.965,14.965C363.749,287.214,357.049,293.914,348.785,293.914z"/>
	<path style="fill:#005E7F;" d="M238.378,350.78h-75.163c-8.265,0-14.965-6.7-14.965-14.965c0-8.265,6.7-14.965,14.965-14.965
		h75.163c8.265,0,14.965,6.7,14.965,14.965C253.343,344.08,246.643,350.78,238.378,350.78z"/>
</g>
<g>
	<path style="fill:#002E41;" d="M348.785,263.985h-92.784v29.929h92.784c8.265,0,14.965-6.7,14.965-14.965
		C363.75,270.685,357.049,263.985,348.785,263.985z"/>
	<path style="fill:#002E41;" d="M348.785,207.119h-92.784v29.929h92.784c8.265,0,14.965-6.7,14.965-14.965
		S357.049,207.119,348.785,207.119z"/>
	<path style="fill:#002E41;" d="M348.785,150.253h-92.784v29.929h92.784c8.265,0,14.965-6.7,14.965-14.965
		S357.049,150.253,348.785,150.253z"/>
	<path style="fill:#002E41;" d="M348.785,93.387h-92.784v29.929h92.784c8.265,0,14.965-6.7,14.965-14.965
		S357.049,93.387,348.785,93.387z"/>
</g>
<g>
</g>
<g>
</g>
<g>
</g>
<g>
</g>
<g>
</g>
<g>
</g>
<g>
</g>
<g>
</g>
<g>
</g>
<g>
</g>
<g>
</g>
<g>
</g>
<g>
</g>
<g>
</g>
<g>
</g>
</svg>
