<svg id="Layer_1" enable-background="new 0 0 256 256" height="512" viewBox="0 0 256 256" width="512" xmlns="http://www.w3.org/2000/svg"><g><path d="m220.86 11.93v196.07h-165.19c-5.67 0-10.8 2.3-14.52 6.02-3.71 3.72-6.01 8.85-6.01 14.52v-201.61c0-11.046 8.954-20 20-20h160.72c2.761 0 5 2.239 5 5z" fill="#f9d335"/><path d="m55.67 208c-5.67 0-10.8 2.3-14.52 6.02-3.762 3.772-6.074 8.994-6.009 14.759.129 11.333 9.724 20.291 21.058 20.291h159.661c2.761 0 5-2.239 5-5v-15.53-20.54z" fill="#ffe2e2"/><path d="m101.142 121.052v45.587c0 2.315 2.56 3.706 4.506 2.455l23.614-15.215 20.984 14.852c1.935 1.374 4.612-.012 4.612-2.385v-45.295h-53.716z" fill="#ff4a73"/><circle cx="128" cy="89.793" fill="#44c7b6" r="46.531"/><path d="m150.391 82.067-12.261-1.782c-.917-.134-1.71-.71-2.12-1.541l-5.483-11.11c-1.033-2.093-4.018-2.093-5.051 0l-5.483 11.11c-.41.831-1.203 1.407-2.12 1.541l-12.261 1.782c-2.31.336-3.232 3.174-1.561 4.803l8.872 8.649c.664.647.967 1.579.81 2.492l-2.094 12.212c-.395 2.3 2.02 4.055 4.086 2.969l10.967-5.766c.82-.431 1.801-.431 2.621 0l10.967 5.766c2.066 1.086 4.481-.669 4.086-2.969l-2.095-12.212c-.157-.913.146-1.846.81-2.492l8.872-8.649c1.67-1.629.748-4.468-1.562-4.803z" fill="#f9d335"/><path d="m70.14 6.93c-11.05 0-20 8.95-20 20v181.84c-3.45.95-6.53 2.79-8.99 5.25-3.71 3.72-6.01 8.85-6.01 14.52v-201.61c0-11.05 8.95-20 20-20z" fill="#f9e27d"/><path d="m220.86 11.93v196.07h-15v-196.07c0-2.76-2.24-5-5-5h15c2.76 0 5 2.24 5 5z" fill="#f2c300"/><path d="m135.5 135.71c-2.44.4-4.95.61-7.5.61-25.7 0-46.53-20.83-46.53-46.53s20.83-46.53 46.53-46.53c2.55 0 5.06.21 7.5.61-22.13 3.58-39.03 22.77-39.03 45.92s16.9 42.34 39.03 45.92z" fill="#4bdbc3"/><path d="m71.2 249.07h-15c-11.33 0-20.93-8.96-21.06-20.29-.06-5.77 2.25-10.99 6.01-14.76 3.72-3.72 8.85-6.02 14.52-6.02h15c-5.67 0-10.8 2.3-14.52 6.02-3.76 3.77-6.07 8.99-6.01 14.76.13 11.33 9.73 20.29 21.06 20.29z" fill="#ffefee"/><path d="m220.86 208v36.07c0 2.76-2.24 5-5 5h-15c2.76 0 5-2.24 5-5v-36.07z" fill="#ffcfcf"/><g fill="#5f266d"><path d="m215.86 2.93h-160.72c-13.233 0-24 10.767-24 24 0 .268-.001 201.626.002 201.894.152 13.369 11.393 24.246 25.058 24.246h159.66c4.963 0 9-4.038 9-9 0-9.31 0-219.455 0-232.14 0-4.962-4.037-9-9-9zm1 241.14c0 .551-.448 1-1 1h-159.661c-9.304 0-16.955-7.329-17.058-16.336-.105-9.277 7.37-16.734 16.529-16.734h161.19zm0-40.07h-161.19c-6.248 0-12.079 2.354-16.508 6.391-.007.007-.015.012-.023.019v-183.48c0-8.822 7.178-16 16-16h160.721c.552 0 1 .449 1 1z"/><path d="m150.966 78.108-11.646-1.692-5.208-10.552c-2.498-5.065-9.727-5.064-12.225 0l-5.208 10.553-11.646 1.692c-5.588.811-7.821 7.685-3.777 11.626l8.426 8.214-1.988 11.598c-.956 5.577 4.903 9.809 9.89 7.186l10.416-5.476c11.258 5.919 11.407 6.266 13.594 6.266 4.082 0 7.448-3.681 6.712-7.976l-1.988-11.599 8.425-8.213c4.045-3.942 1.811-10.814-3.777-11.627zm-10.95 30.428c-13.717-7.211-10.145-7.3-24.031 0 2.633-15.355 3.749-11.962-7.426-22.855 15.345-2.229 12.509-.078 19.441-14.125 6.859 13.898 3.924 11.87 19.441 14.125-11.111 10.831-10.071 7.427-7.425 22.855z"/><path d="m128 39.262c-27.863 0-50.531 22.668-50.531 50.531 0 16.25 7.719 30.723 19.673 39.973v36.873c0 5.485 6.088 8.768 10.673 5.817l21.343-13.751 18.773 13.288c4.579 3.248 10.928-.028 10.928-5.646v-36.581c11.954-9.25 19.673-23.723 19.673-39.973-.001-27.863-22.669-50.531-50.532-50.531zm22.858 125.002-19.285-13.65c-1.331-.943-3.105-.982-4.477-.098l-21.955 14.146v-29.827c14.367 7.321 31.348 7.322 45.717 0zm-22.858-31.94c-23.452 0-42.531-19.079-42.531-42.531s19.079-42.531 42.531-42.531 42.531 19.079 42.531 42.531-19.079 42.531-42.531 42.531z"/><path d="m200 61.75c-2.209 0-4 1.791-4 4v6.25c0 2.209 1.791 4 4 4s4-1.791 4-4v-6.25c0-2.209-1.791-4-4-4z"/><path d="m200 20.75c-2.209 0-4 1.791-4 4v26c0 2.209 1.791 4 4 4s4-1.791 4-4v-26c0-2.209-1.791-4-4-4z"/></g></g></svg>