<?xml version="1.0"?>
<svg xmlns="http://www.w3.org/2000/svg" viewBox="0 0 512 512" width="512" height="512"><g id="Rating"><path d="M400,280a23.882,23.882,0,0,0-8,1.371V280a23.989,23.989,0,0,0-39.986-17.887A24.03,24.03,0,0,0,328,257.371V240a24,24,0,0,0-48,0v78.066l-8-8a24,24,0,0,0-34.6,33.239l43.855,68.991a8.08,8.08,0,0,0,.915,1.18L296,428.23V480a8,8,0,0,0,8,8h96a8,8,0,0,0,8-8V425.3l15.589-46.768A8,8,0,0,0,424,376V304a23.98,23.98,0,0,0-24-24Zm8,94.7L392.411,421.47A8,8,0,0,0,392,424v48H312V424a8,8,0,0,0-4.982-7.411l-12.669-13.513-43.878-69.028a7.985,7.985,0,0,0-1.095-1.365,8,8,0,1,1,11.307-11.307l21.66,21.661A8,8,0,0,0,296,337.38V240a8,8,0,1,1,16,0v72a8,8,0,0,0,16,0V280a8,8,0,1,1,16,0v32a8,8,0,0,0,16,0V280a8,8,0,1,1,16,0v32a8,8,0,0,0,16,0v-8a8,8,0,1,1,16,0Z"/><path d="M296.776,199.334a8,8,0,0,0,11.607-8.434L300.6,145.5l32.988-32.156A8,8,0,0,0,329.15,99.7l-45.588-6.624L263.174,51.76a8,8,0,0,0-14.348,0L228.438,93.071,182.85,99.7a8,8,0,0,0-4.434,13.646L211.4,145.5l-7.787,45.4a8,8,0,0,0,11.607,8.434L256,177.9Zm-74.65-21.705,5.759-33.573a8,8,0,0,0-2.3-7.081L201.191,113.2l33.71-4.9a8,8,0,0,0,6.024-4.377L256,73.377l15.075,30.546A8,8,0,0,0,277.1,108.3l33.71,4.9-24.393,23.777a8,8,0,0,0-2.3,7.081l5.759,33.573-30.151-15.851a8,8,0,0,0-7.446,0Z"/><path d="M161.15,99.7l-45.588-6.624L95.174,51.76a8,8,0,0,0-14.348,0L60.438,93.071,14.85,99.7a8,8,0,0,0-4.434,13.646L43.4,145.5l-7.787,45.4a8,8,0,0,0,11.607,8.434L88,177.9l40.776,21.437a8,8,0,0,0,11.607-8.434L132.6,145.5l32.988-32.156A8,8,0,0,0,161.15,99.7Zm-42.734,37.28a8,8,0,0,0-2.3,7.081l5.759,33.573L91.723,161.778a8,8,0,0,0-7.446,0L54.126,177.629l5.759-33.573a8,8,0,0,0-2.3-7.081L33.191,113.2l33.71-4.9a8,8,0,0,0,6.024-4.377L88,73.377l15.075,30.546A8,8,0,0,0,109.1,108.3l33.71,4.9Z"/><path d="M503.608,105.14A8,8,0,0,0,497.15,99.7l-45.588-6.624L431.174,51.76a8,8,0,0,0-14.348,0L396.438,93.071,350.85,99.7a8,8,0,0,0-4.434,13.646L379.4,145.5l-7.787,45.4a8,8,0,0,0,11.607,8.434L424,177.9l40.776,21.437a8,8,0,0,0,11.607-8.434L468.6,145.5l32.988-32.156A8,8,0,0,0,503.608,105.14Zm-49.192,31.835a8,8,0,0,0-2.3,7.081l5.759,33.573-30.151-15.851a8,8,0,0,0-7.446,0l-30.151,15.851,5.759-33.573a8,8,0,0,0-2.3-7.081L369.191,113.2l33.71-4.9a8,8,0,0,0,6.024-4.377L424,73.377l15.075,30.546A8,8,0,0,0,445.1,108.3l33.71,4.9Z"/></g></svg>
