<svg id="Capa_1" enable-background="new 0 0 512.121 512.121" height="512" viewBox="0 0 512.121 512.121" width="512" xmlns="http://www.w3.org/2000/svg"><g><g><g><path d="m164.822 484.499h43.07c4.143 0 7.5-3.357 7.5-7.5s-3.357-7.5-7.5-7.5h-43.07c-4.143 0-7.5 3.357-7.5 7.5s3.358 7.5 7.5 7.5z"/><path d="m227.637 107.227h-104.17c-4.143 0-7.5 3.357-7.5 7.5s3.357 7.5 7.5 7.5h104.17c4.143 0 7.5-3.357 7.5-7.5s-3.358-7.5-7.5-7.5z"/><path d="m84.16 188.422h20.534c4.143 0 7.5-3.357 7.5-7.5s-3.357-7.5-7.5-7.5h-20.534c-4.143 0-7.5 3.357-7.5 7.5s3.358 7.5 7.5 7.5z"/><path d="m138.75 188.422h68.902c4.143 0 7.5-3.357 7.5-7.5s-3.357-7.5-7.5-7.5h-68.902c-4.143 0-7.5 3.357-7.5 7.5s3.357 7.5 7.5 7.5z"/><path d="m84.16 221.83h20.534c4.143 0 7.5-3.357 7.5-7.5s-3.357-7.5-7.5-7.5h-20.534c-4.143 0-7.5 3.357-7.5 7.5s3.358 7.5 7.5 7.5z"/><path d="m138.75 221.83h68.902c4.143 0 7.5-3.357 7.5-7.5s-3.357-7.5-7.5-7.5h-68.902c-4.143 0-7.5 3.357-7.5 7.5s3.357 7.5 7.5 7.5z"/><path d="m84.16 255.237h20.534c4.143 0 7.5-3.357 7.5-7.5s-3.357-7.5-7.5-7.5h-20.534c-4.143 0-7.5 3.357-7.5 7.5s3.358 7.5 7.5 7.5z"/><path d="m138.75 255.237h68.902c4.143 0 7.5-3.357 7.5-7.5s-3.357-7.5-7.5-7.5h-68.902c-4.143 0-7.5 3.357-7.5 7.5s3.357 7.5 7.5 7.5z"/><path d="m84.16 288.646h20.534c4.143 0 7.5-3.357 7.5-7.5s-3.357-7.5-7.5-7.5h-20.534c-4.143 0-7.5 3.357-7.5 7.5s3.358 7.5 7.5 7.5z"/><path d="m138.75 288.646h68.902c4.143 0 7.5-3.357 7.5-7.5s-3.357-7.5-7.5-7.5h-68.902c-4.143 0-7.5 3.357-7.5 7.5s3.357 7.5 7.5 7.5z"/><path d="m84.16 322.053h20.534c4.143 0 7.5-3.357 7.5-7.5s-3.357-7.5-7.5-7.5h-20.534c-4.143 0-7.5 3.357-7.5 7.5s3.358 7.5 7.5 7.5z"/><path d="m138.75 322.053h83.136c4.143 0 7.5-3.357 7.5-7.5s-3.357-7.5-7.5-7.5h-83.136c-4.143 0-7.5 3.357-7.5 7.5s3.357 7.5 7.5 7.5z"/><path d="m84.16 355.461h20.534c4.143 0 7.5-3.357 7.5-7.5s-3.357-7.5-7.5-7.5h-20.534c-4.143 0-7.5 3.357-7.5 7.5s3.358 7.5 7.5 7.5z"/><path d="m289.561 340.461h-150.811c-4.143 0-7.5 3.357-7.5 7.5s3.357 7.5 7.5 7.5h150.811c4.143 0 7.5-3.357 7.5-7.5s-3.358-7.5-7.5-7.5z"/><path d="m84.16 388.868h20.534c4.143 0 7.5-3.357 7.5-7.5s-3.357-7.5-7.5-7.5h-20.534c-4.143 0-7.5 3.357-7.5 7.5s3.358 7.5 7.5 7.5z"/><path d="m289.561 373.868h-150.811c-4.143 0-7.5 3.357-7.5 7.5s3.357 7.5 7.5 7.5h150.811c4.143 0 7.5-3.357 7.5-7.5s-3.358-7.5-7.5-7.5z"/><path d="m442.134 113.447c-22.432-22.423-52.244-34.767-83.958-34.767-.029 0-.061 0-.09 0-7.01.005-13.877.625-20.557 1.801v-46.582c0-18.692-15.207-33.899-33.899-33.899h-234.545c-18.692 0-33.899 15.207-33.899 33.899v62.494c0 4.143 3.357 7.5 7.5 7.5s7.5-3.357 7.5-7.5v-62.494c0-10.42 8.478-18.899 18.899-18.899h43.777l5.241 23.144c2.144 9.465 10.419 16.075 20.123 16.075h96.262c9.704 0 17.979-6.61 20.123-16.076l5.241-23.143h43.778c10.421 0 18.899 8.479 18.899 18.899v50.25c-48.122 15.179-83.121 60.239-83.119 113.297.001 25.518 7.979 49.839 23.068 70.335.06.081.087.174.068.229l-9.847 28.95c-1.876 5.516-.496 11.517 3.601 15.661 2.929 2.963 6.823 4.548 10.83 4.548 1.598 0 3.213-.252 4.791-.769l35.319-11.566c.065-.021.144-.014.217.021 4.918 2.326 9.947 4.297 15.071 5.912v131.11h-272.342v-311.191c0-4.143-3.357-7.5-7.5-7.5s-7.5 3.357-7.5 7.5v347.536c0 18.692 15.207 33.899 33.899 33.899h234.545c18.692 0 33.899-15.207 33.899-33.899v-163.801c6.458 1.13 13.036 1.728 19.712 1.78 29.222.205 57.363-10.323 79.343-29.703 3.107-2.739 3.405-7.479.666-10.586s-7.479-3.406-10.586-.666c-19.206 16.934-43.809 26.111-69.308 25.955-15.207-.117-29.837-3.45-43.485-9.906-3.556-1.682-7.567-1.937-11.296-.717l-35.32 11.566c-.113.038-.165.054-.287-.069s-.104-.175-.066-.286l9.847-28.95c1.599-4.701.78-9.916-2.19-13.951-13.18-17.9-20.146-39.146-20.147-61.441-.002-57.176 46.512-103.726 103.688-103.767h.077c27.707 0 53.758 10.787 73.354 30.376 19.617 19.609 30.415 45.684 30.406 73.421-.006 18.483-4.979 36.651-14.382 52.54-2.11 3.564-.931 8.164 2.635 10.273 3.564 2.111 8.164.931 10.273-2.635 10.771-18.198 16.467-39.006 16.474-60.173.009-31.747-12.35-61.591-34.803-84.035zm-202.152-78.618c-.586 2.585-2.845 4.39-5.494 4.39h-96.262c-2.649 0-4.908-1.805-5.494-4.389l-4.49-19.83h116.23zm82.547 443.393c0 10.421-8.479 18.899-18.899 18.899h-234.545c-10.421 0-18.899-8.479-18.899-18.899v-21.345h272.344v21.345z"/><path d="m367.507 143.627c-3.594 2.253-6.741 5.012-9.334 8.139-2.592-3.127-5.739-5.885-9.334-8.14-17.234-10.806-35.83-9.007-49.745 4.806-7.789 7.73-12.298 18.635-12.371 29.915-.263 40.463 32.23 59.501 60.898 76.299 1.746 1.023 3.482 2.041 5.202 3.058 1.649.976 3.499 1.463 5.35 1.463 1.85 0 3.7-.487 5.352-1.464 1.718-1.016 3.454-2.033 5.2-3.057 28.668-16.798 61.161-35.836 60.898-76.299-.073-11.28-4.581-22.184-12.369-29.914v-.001c-13.918-13.816-32.516-15.612-49.747-4.805zm-6.365 98.077c-.993.582-1.983 1.162-2.969 1.741-.985-.579-1.976-1.159-2.969-1.741-26.396-15.466-53.688-31.458-53.481-63.26.047-7.348 2.94-14.406 7.938-19.367 4.961-4.925 10.608-7.403 16.588-7.403 4.726 0 9.657 1.549 14.621 4.66 4.604 2.888 7.962 7.018 9.459 11.634 1.106 3.407 4.258 5.695 7.844 5.695h.006c3.588-.002 6.739-2.295 7.839-5.698 1.496-4.613 4.855-8.744 9.458-11.63 11.242-7.048 22.326-6.075 31.21 2.743v-.001c4.997 4.961 7.891 12.02 7.938 19.367.206 31.802-27.087 47.794-53.482 63.26z"/></g></g></g></svg>